<svg width="24" height="24" viewBox="0 0 24 24" fill="none" xmlns="http://www.w3.org/2000/svg">
<path d="M19.8866 6.88149C19.8866 7.18519 19.7636 7.47496 19.5434 7.6895L15.3617 11.763C14.4435 10.8686 14.4435 9.41976 15.3617 8.52537L17.0492 6.88149L15.3617 5.23761C14.4435 4.34323 14.4435 2.89438 15.3617 2L19.5434 6.0707C19.7636 6.28524 19.8866 6.57501 19.8866 6.87871" fill="white"/>
<path d="M4.00005 16.6444C4.00005 16.3407 4.12304 16.051 4.34328 15.8364L8.52499 11.7629C9.44313 12.6573 9.44313 14.1062 8.52499 15.0005L6.83743 16.6444L8.52499 18.2883C9.44313 19.1827 9.44313 20.6315 8.52499 21.5259L4.34328 17.4524C4.12304 17.2379 4.00005 16.9481 4.00005 16.6444Z" fill="white"/>
<path d="M18.7104 5.73628H4.00005V8.02378H18.7104V5.73628Z" fill="white"/>
<path d="M19.8836 15.4994H5.17322V17.7869H19.8836V15.4994Z" fill="white"/>
</svg>
